<?xml version="1.0" encoding="utf-8"?>
<svg xmlns="http://www.w3.org/2000/svg"
	xmlns:xlink="http://www.w3.org/1999/xlink"
	width="98px" height="122px" viewBox="0 0 98 122">
<path fillRule="evenodd" d="M 0.47 98.34C 0.47 98.34 24 122.43 24 122.43 24 122.43 24 98.34 24 98.34 24 98.34 0.47 98.34 0.47 98.34Z" fill="rgb(0,0,0)"/><path fillRule="evenodd" d="M 9.49 0C 9.49 0 87.5 0 87.5 0 93.03 0 97.5 4.48 97.5 10 97.5 10 97.5 88.34 97.5 88.34 97.5 93.86 93.03 98.34 87.5 98.34 87.5 98.34-0.51 98.34-0.51 98.34-0.51 98.34-0.51 10-0.51 10-0.51 4.48 3.97 0 9.49 0Z" fill="rgb(255,255,255)"/><rect x="19" y="55" width="30" height="7" fill="rgb(0,0,0)"/><rect x="19" y="35" width="59" height="8" fill="rgb(0,0,0)"/></svg>